<svg height="61" viewBox="0 0 62 61" width="62" xmlns="http://www.w3.org/2000/svg"><path d="m39 15h-16c-1.66 0-3 1.34-3 3v26c0 1.66 1.34 3 3 3h16c1.66 0 3-1.34 3-3v-26c0-1.66-1.34-3-3-3zm1 29c0 .55-.45 1-1 1h-16c-.55 0-1-.45-1-1v-2h18zm0-3h-18v-20h18zm0-21h-18v-2c0-.55.45-1 1-1h16c.55 0 1 .45 1 1zm-7-1.5c0 .28-.22.5-.5.5h-3c-.28 0-.5-.22-.5-.5 0-.28.22-.5.5-.5h3c.28 0 .5.22.5.5zm-1 25c0 .27-.22.5-.5.5h-1c-.28 0-.5-.23-.5-.5 0-.28.22-.5.5-.5h1c.28 0 .5.22.5.5z" fill="#666d89"/><path d="m30.5 1c16.29 0 29.5 13.21 29.5 29.5s-13.21 29.5-29.5 29.5-29.5-13.21-29.5-29.5 13.21-29.5 29.5-29.5z" fill="none" stroke="#666d89" stroke-width="2"/></svg>