<svg height="61" viewBox="0 0 62 61" width="62" xmlns="http://www.w3.org/2000/svg"><path d="m46.88 26.56c-.28-.8-.99-1.39-1.84-1.51l-8.33-1.24-3.62-7.52c-.38-.78-1.19-1.29-2.09-1.29s-1.71.51-2.09 1.29l-3.62 7.52-8.33 1.24c-.85.12-1.56.71-1.84 1.51s-.07 1.68.54 2.28l6.1 6.09-1.42 8.46c-.14.85.23 1.7.95 2.2.4.27.87.41 1.33.41.39 0 .77-.09 1.12-.28l7.26-3.91 7.26 3.91c.35.19.73.28 1.12.28.46 0 .93-.14 1.33-.41.72-.5 1.09-1.35.95-2.2l-1.42-8.46 6.1-6.09c.61-.6.82-1.48.54-2.28zm-8.29 6.8c-.51.51-.75 1.23-.63 1.94l1.42 8.45-7.26-3.91c-.35-.19-.74-.28-1.12-.28s-.77.09-1.12.28l-7.26 3.91 1.42-8.45c.12-.71-.12-1.43-.63-1.94l-6.1-6.09 8.33-1.24c.76-.11 1.41-.59 1.74-1.27l3.62-7.51 3.62 7.51c.33.68.98 1.16 1.74 1.27l8.33 1.24z" fill="#666d89"/><path d="m30.5 1c16.29 0 29.5 13.21 29.5 29.5s-13.21 29.5-29.5 29.5-29.5-13.21-29.5-29.5 13.21-29.5 29.5-29.5z" fill="none" stroke="#666d89" stroke-width="2"/></svg>