<svg height="61" viewBox="0 0 61 61" width="61" xmlns="http://www.w3.org/2000/svg"><path d="m31 14c-6.08 0-11 4.92-11 11 0 4.03 3.69 8.3 5.03 12.05 2 5.6 1.78 8.95 5.97 8.95 4.25 0 3.96-3.33 5.97-8.92 1.35-3.76 5.03-8.08 5.03-12.08 0-6.08-4.92-11-11-11zm2.59 27.18-4.96.62c-.17-.52-.36-1.12-.59-1.9-.01-.01-.01-.02-.01-.03l6.19-.77c-.09.29-.19.6-.27.88-.13.45-.25.84-.36 1.2zm-5.85-2.27c-.19-.6-.39-1.24-.62-1.91h7.77c-.13.36-.25.72-.35 1.06zm3.26 5.09c-1.01 0-1.48-.12-2-1.25l4.24-.53c-.61 1.65-1.06 1.78-2.24 1.78zm4.67-9h-9.33c-.5-1.08-1.1-2.16-1.69-3.22-1.3-2.33-2.65-4.75-2.65-6.78 0-4.96 4.04-9 9-9s9 4.04 9 9c0 2.02-1.35 4.45-2.66 6.8-.58 1.05-1.17 2.13-1.67 3.2zm-4.67-16c-3.31 0-6 2.69-6 6 0 .28.22.5.5.5s.5-.22.5-.5c0-2.76 2.24-5 5-5 .28 0 .5-.22.5-.5s-.22-.5-.5-.5z" fill="#666d89"/><path d="m30.5 1c16.29 0 29.5 13.21 29.5 29.5s-13.21 29.5-29.5 29.5-29.5-13.21-29.5-29.5 13.21-29.5 29.5-29.5z" fill="none" stroke="#666d89" stroke-width="2"/></svg>