<svg height="61" viewBox="0 0 62 61" width="62" xmlns="http://www.w3.org/2000/svg"><path d="m44.19 19.79c-3.63-3.59-9.43-3.66-13.19-.29-3.76-3.37-9.56-3.3-13.19.29-3.74 3.7-3.74 9.7 0 13.4 1.07 1.06 11.05 10.93 11.05 10.93 1.18 1.17 3.1 1.17 4.28 0 0 0 10.93-10.81 11.05-10.93 3.74-3.7 3.74-9.7 0-13.4zm-1.42 11.99-11.06 10.93c-.39.39-1.03.39-1.42 0l-11.05-10.93c-2.96-2.92-2.96-7.66 0-10.58 2.84-2.81 7.41-2.91 10.4-.22l1.36 1.22 1.36-1.22c2.99-2.69 7.56-2.59 10.41.22 2.95 2.92 2.95 7.66 0 10.58zm-18.52-9.75c-2.35 0-4.25 1.9-4.25 4.24 0 .28.23.5.5.5.28 0 .5-.22.5-.5 0-1.79 1.46-3.24 3.25-3.24.28 0 .5-.23.5-.5 0-.28-.22-.5-.5-.5z" fill="#666d89"/><path d="m30.5 1c16.29 0 29.5 13.21 29.5 29.5s-13.21 29.5-29.5 29.5-29.5-13.21-29.5-29.5 13.21-29.5 29.5-29.5z" fill="none" stroke="#666d89" stroke-width="2"/></svg>